<svg width="199" height="200" viewBox="0 0 199 200" fill="none" xmlns="http://www.w3.org/2000/svg">
<circle cx="99.4768" cy="100.032" r="80.7771" transform="rotate(15.1123 99.4768 100.032)" fill="white"/>
<path d="M45.4309 115.642L75.592 76.1165L52.476 69.874L55.0703 60.2674L89.1439 69.4689L86.5496 79.0756L56.4635 118.622L45.4309 115.642ZM90.3078 127.761L85.3772 119.183L145.429 84.6687L150.339 93.3225L90.3078 127.761ZM126.029 138.616C123.552 137.947 121.45 136.735 119.723 134.98C118.028 133.207 116.841 131.142 116.162 128.785C115.49 126.402 115.492 123.96 116.168 121.458C116.83 119.007 118.063 116.924 119.868 115.21C121.673 113.497 123.766 112.304 126.149 111.632C128.531 110.96 130.923 110.949 133.325 111.597C135.802 112.266 137.9 113.49 139.621 115.27C141.348 117.025 142.535 119.09 143.182 121.466C143.86 123.823 143.862 126.253 143.186 128.755C142.511 131.256 141.283 133.367 139.503 135.088C137.755 136.79 135.69 137.977 133.307 138.649C130.932 139.296 128.505 139.285 126.029 138.616ZM128.36 129.985C129.235 130.221 130.096 130.212 130.944 129.958C131.816 129.71 132.575 129.285 133.221 128.681C133.874 128.052 134.319 127.299 134.555 126.424C134.792 125.548 134.783 124.687 134.528 123.84C134.281 122.968 133.842 122.205 133.214 121.552C132.61 120.906 131.87 120.465 130.994 120.228C130.119 119.992 129.245 119.997 128.373 120.245C127.526 120.499 126.776 120.941 126.123 121.57C125.476 122.174 125.035 122.913 124.799 123.789C124.562 124.665 124.568 125.538 124.815 126.411C125.07 127.258 125.499 128.004 126.103 128.651C126.732 129.304 127.484 129.748 128.36 129.985ZM102.411 100.833C99.9346 100.164 97.8327 98.9524 96.1056 97.1976C94.3852 95.4177 93.1857 93.3491 92.5071 90.9916C91.8603 88.6159 91.8746 86.1772 92.5502 83.6755C93.2123 81.2238 94.4458 79.1411 96.2506 77.4275C98.0555 75.7139 100.149 74.5212 102.532 73.8493C104.914 73.1774 107.306 73.1658 109.708 73.8144C112.184 74.4832 114.271 75.7042 115.966 77.4772C117.693 79.2321 118.893 81.3007 119.564 83.6832C120.243 86.0406 120.245 88.4702 119.569 90.9719C118.893 93.4736 117.666 95.5847 115.886 97.3051C114.113 99.0004 112.035 100.184 109.652 100.856C107.302 101.51 104.888 101.502 102.411 100.833ZM104.742 92.2021C105.618 92.4385 106.479 92.4296 107.326 92.1752C108.198 91.9276 108.958 91.5018 109.604 90.8979C110.257 90.269 110.701 89.5167 110.938 88.6411C111.174 87.7655 111.165 86.9042 110.911 86.057C110.663 85.1849 110.225 84.4224 109.596 83.7694C108.992 83.1231 108.253 82.6818 107.377 82.4453C106.501 82.2089 105.628 82.2145 104.755 82.4621C103.908 82.7165 103.158 83.1581 102.505 83.787C101.859 84.3909 101.418 85.1307 101.181 86.0063C100.945 86.8819 100.95 87.7558 101.198 88.6279C101.452 89.475 101.881 90.2217 102.485 90.8679C103.114 91.5209 103.867 91.9656 104.742 92.2021Z" fill="#2D6AC8"/>
</svg>
