<svg width="92" height="92" viewBox="0 0 92 92" fill="none" xmlns="http://www.w3.org/2000/svg">
<circle cx="45.6117" cy="46.1667" r="36" transform="rotate(-18.6242 45.6117 46.1667)" fill="white"/>
<path d="M32.7408 63.5915L34.0294 43.1664L24.6895 46.314L23.3814 42.4325L37.1486 37.7929L38.4567 41.6744L37.1985 62.0892L32.7408 63.5915ZM50.8731 57.4808L47.2241 55.6714L59.8902 30.1288L63.5493 31.9685L50.8731 57.4808ZM65.582 53.0303C64.5813 53.3675 63.5848 53.4332 62.5924 53.2274C61.6067 53.008 60.7283 52.5724 59.9571 51.9206C59.1824 51.2586 58.6248 50.4223 58.2841 49.4114C57.9503 48.4209 57.8964 47.426 58.1225 46.4268C58.3486 45.4276 58.7926 44.5407 59.4545 43.766C60.1165 42.9914 60.9326 42.4406 61.903 42.1136C62.9037 41.7763 63.9019 41.7157 64.8977 41.9316C65.8901 42.1375 66.7686 42.5731 67.5331 43.2385C68.3043 43.8903 68.8602 44.7216 69.2009 45.7324C69.5415 46.7432 69.6039 47.7465 69.3879 48.7423C69.1787 49.7246 68.743 50.603 68.0811 51.3777C67.4158 52.1422 66.5827 52.6931 65.582 53.0303ZM64.4068 49.543C64.7606 49.4238 65.0534 49.2238 65.2852 48.9431C65.5271 48.6589 65.6897 48.3396 65.7728 47.9852C65.8526 47.6206 65.8328 47.2615 65.7136 46.9077C65.5944 46.5539 65.3944 46.2611 65.1137 46.0293C64.8295 45.7873 64.5052 45.6265 64.1406 45.5468C63.7861 45.4636 63.432 45.4816 63.0782 45.6009C62.7245 45.7201 62.4266 45.9218 62.1847 46.2059C61.9529 46.4866 61.7971 46.8093 61.7173 47.1738C61.6342 47.5283 61.6522 47.8824 61.7714 48.2362C61.8907 48.59 62.0923 48.8878 62.3765 49.1298C62.6572 49.3616 62.9748 49.5191 63.3293 49.6022C63.6938 49.682 64.053 49.6622 64.4068 49.543ZM48.8602 45.496C47.8595 45.8333 46.863 45.899 45.8706 45.6931C44.8748 45.4771 43.9913 45.0432 43.2201 44.3914C42.4556 43.7261 41.903 42.888 41.5623 41.8772C41.2285 40.8866 41.1746 39.8917 41.4007 38.8925C41.6268 37.8933 42.0708 37.0064 42.7327 36.2318C43.3947 35.4571 44.2108 34.9063 45.1812 34.5793C46.1819 34.242 47.1751 34.1831 48.1608 34.4025C49.1531 34.6083 50.0366 35.0422 50.8113 35.7042C51.5825 36.356 52.1384 37.1873 52.4791 38.1981C52.8197 39.209 52.8821 40.2122 52.6661 41.208C52.4467 42.1937 52.0061 43.0739 51.3441 43.8485C50.6889 44.6096 49.8609 45.1588 48.8602 45.496ZM47.685 42.0087C48.0388 41.8895 48.3316 41.6895 48.5634 41.4088C48.8053 41.1246 48.9679 40.8054 49.051 40.4509C49.1308 40.0863 49.111 39.7272 48.9918 39.3734C48.8726 39.0196 48.6726 38.7268 48.3919 38.495C48.1077 38.2531 47.7834 38.0922 47.4188 38.0125C47.0643 37.9293 46.7102 37.9473 46.3564 38.0666C46.0027 38.1858 45.7048 38.3875 45.4629 38.6716C45.2311 38.9524 45.0753 39.275 44.9955 39.6396C44.9124 39.994 44.9304 40.3481 45.0496 40.7019C45.1689 41.0557 45.3705 41.3536 45.6547 41.5955C45.9354 41.8273 46.253 41.9848 46.6075 42.0679C46.972 42.1477 47.3312 42.128 47.685 42.0087Z" fill="#2D6AC8"/>
</svg>
