<svg width="10" height="10" viewBox="0 0 10 10" fill="none" xmlns="http://www.w3.org/2000/svg">
<path d="M0.452704 0.0674133C0.197353 0.156786 0.0218 0.43448 0.0218 0.737708C0.0249918 1.02178 0.0505268 1.05051 2.07418 3.07416L3.99569 4.99887L2.06141 6.93634C-0.0771484 9.08128 -0.00692696 8.9951 0.0313756 9.35898C0.0664863 9.69412 0.305877 9.93351 0.641025 9.96862C1.0049 10.0069 0.918718 10.0771 3.06366 7.93859L5.00113 6.00431L6.92584 7.92582C8.3941 9.39409 8.88246 9.86329 8.99098 9.91117C9.26229 10.0357 9.55594 9.98458 9.7698 9.77711C9.98366 9.56964 10.0411 9.26641 9.91343 8.98872C9.86556 8.88019 9.39635 8.39184 7.92809 6.92038L6.00657 4.99887L7.92809 3.07416C9.39635 1.6059 9.86556 1.11754 9.91343 1.00902C10.1305 0.527043 9.79534 0.0195351 9.26229 0.0195351C8.97821 0.022727 8.94949 0.0482616 6.92584 2.07191L5.00113 3.99342L3.07962 2.07191C1.60816 0.603649 1.11981 0.134442 1.01128 0.0865641C0.845305 0.00995922 0.634641 0.00357533 0.452704 0.0674133Z" fill="white"/>
</svg>
