<svg width="13" height="14" viewBox="0 0 13 14" fill="none" xmlns="http://www.w3.org/2000/svg">
<path fill-rule="evenodd" clip-rule="evenodd" d="M2.38386 9.30755C2.9959 9.30755 3.58287 9.06442 4.01565 8.63164C4.44843 8.19887 4.69156 7.6119 4.69156 6.99986C4.69156 6.38782 4.44843 5.80085 4.01565 5.36807C3.58287 4.9353 2.9959 4.69217 2.38386 4.69217C1.77183 4.69217 1.18486 4.9353 0.752079 5.36807C0.319303 5.80085 0.0761719 6.38782 0.0761719 6.99986C0.0761719 7.6119 0.319303 8.19887 0.752079 8.63164C1.18486 9.06442 1.77183 9.30755 2.38386 9.30755ZM2.38386 5.61524C2.75109 5.61524 3.10327 5.76112 3.36294 6.02079C3.6226 6.28045 3.76848 6.63264 3.76848 6.99986C3.76848 7.36708 3.6226 7.71926 3.36294 7.97893C3.10327 8.2386 2.75109 8.38447 2.38386 8.38447C2.01664 8.38447 1.66446 8.2386 1.40479 7.97893C1.14513 7.71926 0.999249 7.36708 0.999249 6.99986C0.999249 6.63264 1.14513 6.28045 1.40479 6.02079C1.66446 5.76112 2.01664 5.61524 2.38386 5.61524ZM10.6916 4.69217C11.3036 4.69217 11.8906 4.44904 12.3233 4.01626C12.7561 3.58348 12.9992 2.99651 12.9992 2.38447C12.9992 1.77244 12.7561 1.18547 12.3233 0.75269C11.8906 0.319913 11.3036 0.0767822 10.6916 0.0767822C10.0795 0.0767822 9.49255 0.319913 9.05977 0.75269C8.627 1.18547 8.38386 1.77244 8.38386 2.38447C8.38386 2.99651 8.627 3.58348 9.05977 4.01626C9.49255 4.44904 10.0795 4.69217 10.6916 4.69217ZM10.6916 0.999859C11.0588 0.999859 11.411 1.14574 11.6706 1.4054C11.9303 1.66507 12.0762 2.01725 12.0762 2.38447C12.0762 2.7517 11.9303 3.10388 11.6706 3.36355C11.411 3.62321 11.0588 3.76909 10.6916 3.76909C10.3243 3.76909 9.97215 3.62321 9.71249 3.36355C9.45282 3.10388 9.30694 2.7517 9.30694 2.38447C9.30694 2.01725 9.45282 1.66507 9.71249 1.4054C9.97215 1.14574 10.3243 0.999859 10.6916 0.999859ZM10.6916 13.9229C11.3036 13.9229 11.8906 13.6798 12.3233 13.247C12.7561 12.8143 12.9992 12.2273 12.9992 11.6152C12.9992 11.0032 12.7561 10.4162 12.3233 9.98346C11.8906 9.55068 11.3036 9.30755 10.6916 9.30755C10.0795 9.30755 9.49255 9.55068 9.05977 9.98346C8.627 10.4162 8.38386 11.0032 8.38386 11.6152C8.38386 12.2273 8.627 12.8143 9.05977 13.247C9.49255 13.6798 10.0795 13.9229 10.6916 13.9229ZM10.6916 10.2306C11.0588 10.2306 11.411 10.3765 11.6706 10.6362C11.9303 10.8958 12.0762 11.248 12.0762 11.6152C12.0762 11.9825 11.9303 12.3346 11.6706 12.5943C11.411 12.854 11.0588 12.9999 10.6916 12.9999C10.3243 12.9999 9.97215 12.854 9.71249 12.5943C9.45282 12.3346 9.30694 11.9825 9.30694 11.6152C9.30694 11.248 9.45282 10.8958 9.71249 10.6362C9.97215 10.3765 10.3243 10.2306 10.6916 10.2306Z" fill="#2D6AC8"/>
<path d="M4.00213 6.24307L3.5332 5.44922L8.61013 2.44922L9.07905 3.24307L4.00213 6.24307ZM8.84459 11.5028L9.28674 10.6923L4.20982 7.92307L3.76766 8.73353L8.84459 11.5028Z" fill="#2D6AC8"/>
</svg>
