<svg width="16" height="14" viewBox="0 0 16 14" fill="none" xmlns="http://www.w3.org/2000/svg">
<path d="M14.5273 0.911436C12.4395 1.72526 3.48719 5.21515 1.01368 6.16632C-0.645163 6.77557 0.325947 7.34681 0.325947 7.34681C0.325947 7.34681 1.74197 7.8037 2.9559 8.14642C4.16966 8.48913 4.81701 8.10841 4.81701 8.10841L10.5218 4.49092C12.5448 3.19624 12.0594 4.26239 11.5737 4.71945C10.5218 5.70958 8.78205 7.27063 7.32547 8.5273C6.67812 9.06037 7.00171 9.51727 7.28509 9.7458C8.33697 10.5836 11.2097 12.2971 11.3715 12.4113C12.2262 12.9808 13.9074 13.8005 14.1631 12.0686L15.1746 6.0903C15.4984 4.07219 15.822 2.20627 15.8623 1.6732C15.9838 0.378362 14.5273 0.911436 14.5273 0.911436Z" fill="white"/>
</svg>
