<svg width="16" height="19" viewBox="0 0 16 19" fill="none" xmlns="http://www.w3.org/2000/svg">
<path d="M7.53997 0.91523C6.20182 0.932754 3.3249 1.1713 1.71578 2.77276C0.51884 4.05936 0.100928 5.96155 0.0519457 8.31371C0.0113009 10.6574 -0.0376813 15.0587 3.87308 16.2571V18.0824C3.87308 18.0824 3.84859 18.8128 4.2936 18.9626C4.84178 19.1508 5.15391 18.5889 5.675 17.9852L6.64683 16.793C9.32261 17.0344 11.372 16.4781 11.6081 16.3956C12.1511 16.2074 15.2093 15.7834 15.7091 11.3815C16.2218 6.83548 15.4595 3.97117 14.0833 2.67553H14.0749C13.6596 2.26061 11.9906 0.941233 8.26168 0.926536C8.26168 0.926536 7.98498 0.906185 7.53997 0.914665V0.91523ZM7.58583 2.19334C7.9657 2.19052 8.19654 2.20804 8.19654 2.20804C11.3528 2.21709 12.8592 3.2476 13.2146 3.59469C14.3735 4.67213 14.9707 7.25436 14.5335 11.0497C14.1182 14.7297 11.6378 14.9626 11.1787 15.1215C10.9833 15.1893 9.17827 15.6721 6.90424 15.5132C6.90424 15.5132 5.21071 17.7303 4.68129 18.3012C4.59739 18.4013 4.49943 18.4307 4.4369 18.416C4.34727 18.3922 4.32017 18.2718 4.32538 18.1067L4.34154 15.0774C1.02482 14.0825 1.22022 10.3284 1.25566 8.36741C1.2963 6.40643 1.63553 4.80214 2.6454 3.71566C4.00491 2.38215 6.44777 2.20239 7.58478 2.19334H7.58583ZM7.83595 4.15376C7.72183 4.15093 7.62699 4.25382 7.62699 4.37761C7.62699 4.50424 7.72183 4.60429 7.83595 4.60429C8.88073 4.58394 9.88799 5.01356 10.6368 5.8027C11.3939 6.60032 11.7629 7.67211 11.7769 9.07345C11.7769 9.19725 11.8692 9.30013 11.9859 9.30013V9.29109C12.1 9.29109 12.1948 9.19103 12.1948 9.06723C12.2464 7.73372 11.7905 6.43809 10.9354 5.47823C10.1105 4.60373 9.06519 4.15319 7.83595 4.15319V4.15376ZM5.0893 4.67213C4.94287 4.64839 4.79071 4.68117 4.66305 4.76314H4.6521C4.36968 4.9429 4.10653 5.16958 3.85693 5.47257C3.66673 5.71113 3.56355 5.9525 3.53646 6.18484C3.5203 6.32333 3.53125 6.46183 3.56929 6.5941L3.58283 6.60315C3.797 7.28602 4.07682 7.94288 4.41866 8.5613C4.85846 9.42958 5.40091 10.2334 6.0309 10.9519L6.04966 10.9813L6.07936 11.005L6.09812 11.0288L6.12001 11.0491C6.78492 11.7354 7.5259 12.3239 8.32942 12.8066C9.24653 13.3482 9.80305 13.6042 10.1371 13.7105V13.7162C10.235 13.7484 10.3241 13.7631 10.4138 13.7631C10.6988 13.7393 10.9677 13.6161 11.1792 13.4069C11.4507 13.1418 11.6649 12.8507 11.8254 12.5415V12.5358C11.9854 12.2091 11.9312 11.8999 11.7003 11.6907C11.2392 11.2521 10.7368 10.8632 10.2074 10.5279C9.85203 10.3188 9.49092 10.4454 9.3445 10.6574L9.03236 11.0842C8.87239 11.2962 8.58162 11.2668 8.58162 11.2668L8.57329 11.2724C6.40504 10.6715 5.82664 8.28997 5.82664 8.28997C5.82664 8.28997 5.79954 7.96606 6.00016 7.80099L6.39097 7.45956C6.57804 7.2945 6.70832 6.90332 6.5077 6.51723C6.20078 5.94007 5.84279 5.39852 5.43843 4.89768C5.3514 4.7801 5.22686 4.70039 5.08825 4.671L5.0893 4.67213ZM8.19654 5.34369C7.91984 5.34369 7.91984 5.79705 8.19915 5.79705C8.89376 5.80892 9.55606 6.12096 10.0391 6.6625C10.4789 7.18935 10.7066 7.89031 10.6634 8.59974C10.666 8.72354 10.7582 8.8236 10.8723 8.8236L10.8807 8.83547C10.9948 8.83547 11.0896 8.73259 11.0896 8.60879C11.1084 7.71055 10.851 6.95702 10.346 6.35329C9.83849 5.74957 9.13033 5.41096 8.22624 5.34369C8.2153 5.34369 8.20748 5.34369 8.19654 5.34369ZM8.53889 6.56245C8.25386 6.5534 8.24292 7.01581 8.52535 7.02485C9.21214 7.06329 9.54564 7.43977 9.58941 8.21422C9.59201 8.33802 9.68425 8.43524 9.79576 8.43524H9.80409C9.92082 8.42959 10.0131 8.32049 10.0047 8.19387C9.95573 7.18426 9.44819 6.61559 8.54723 6.56301C8.54463 6.56301 8.54202 6.56301 8.53889 6.56301V6.56245Z" fill="white"/>
</svg>
