<svg width="16" height="16" viewBox="0 0 16 16" fill="none" xmlns="http://www.w3.org/2000/svg">
<path d="M0.412842 15.8783C0.627884 15.2331 0.830459 14.6285 1.03304 14.0239C1.23561 13.4255 1.41637 12.8178 1.647 12.2288C1.76542 11.9296 1.72803 11.7052 1.57843 11.4247C0.761895 9.91007 0.518804 8.28635 0.80241 6.59718C1.04238 5.16668 1.65011 3.90136 2.63182 2.82615C4.24931 1.05907 6.26884 0.211371 8.65611 0.3111C10.4045 0.382781 11.9503 1.02167 13.2686 2.17791C14.4965 3.25312 15.2975 4.59012 15.6683 6.17956C15.9675 7.46046 15.9333 8.73513 15.5655 9.99733C15.098 11.5961 14.2036 12.9144 12.8728 13.918C11.0247 15.3142 8.95219 15.7474 6.69269 15.3079C6.01328 15.177 5.36504 14.9339 4.75419 14.6036C4.65446 14.5506 4.57032 14.5381 4.46124 14.5755C3.30188 14.9495 2.13941 15.3204 0.980054 15.6913C0.805527 15.7474 0.627884 15.8066 0.412842 15.8783ZM2.38562 13.9242C2.44795 13.9086 2.476 13.9024 2.50405 13.893C3.2302 13.6624 3.95636 13.4287 4.68563 13.2043C4.75419 13.1824 4.84769 13.2011 4.91314 13.2323C5.22791 13.3881 5.53021 13.5751 5.85434 13.7123C7.18822 14.2764 8.56262 14.3667 9.9526 13.9803C11.6106 13.5159 12.8822 12.528 13.7517 11.0351C14.4965 9.75736 14.7521 8.37673 14.5215 6.92442C14.2285 5.0763 13.2811 3.62399 11.7134 2.59241C10.3546 1.70108 8.85869 1.39878 7.26302 1.65122C5.88862 1.86937 4.71368 2.4958 3.74443 3.49933C2.91231 4.3595 2.35445 5.37549 2.11136 6.5442C1.76542 8.21778 2.02098 9.80099 2.94971 11.244C3.13671 11.5338 3.13047 11.7551 3.01828 12.0511C2.79077 12.6589 2.60066 13.2791 2.38562 13.9242Z" fill="#2D6AC8"/>
<path d="M12.209 10.0787C12.1997 10.6802 11.9161 11.1384 11.3426 11.4251C10.7786 11.7056 10.2051 11.7773 9.61608 11.5466C9.08627 11.3378 8.55022 11.1353 8.03911 10.8828C7.36593 10.5493 6.8143 10.0507 6.30942 9.49907C5.75156 8.88823 5.27784 8.20882 4.88828 7.48266C4.6109 6.96843 4.44261 6.42304 4.50182 5.82466C4.56416 5.18888 4.86023 4.68089 5.35888 4.29755C5.4586 4.22275 5.6082 4.18847 5.73598 4.176C5.90115 4.16354 6.06633 4.18847 6.23151 4.20094C6.36864 4.2134 6.44343 4.31002 6.49018 4.42221C6.61173 4.7214 6.72081 5.02059 6.83612 5.32289C6.91403 5.52547 6.97325 5.7374 7.06674 5.93374C7.18206 6.17683 7.11038 6.37941 6.96078 6.5664C6.833 6.72534 6.69899 6.87805 6.55251 7.01518C6.43097 7.13049 6.40915 7.24892 6.49018 7.38917C6.84859 8.02806 7.2849 8.6015 7.86146 9.06587C8.24168 9.37129 8.66242 9.5988 9.09873 9.81073C9.22651 9.87306 9.35117 9.86371 9.4509 9.74839C9.66594 9.50219 9.8841 9.2591 10.096 9.00977C10.2332 8.85083 10.3017 8.81966 10.4856 8.91316C11.0185 9.18118 11.5452 9.45855 12.075 9.73593C12.1997 9.80449 12.2309 9.91669 12.209 10.0787Z" fill="#2D6AC8"/>
</svg>
